{
  "accessors": [
    {
      "bufferView": 2,
      "componentType": 5126,
      "count": 5986,
      "max": [
        0.024698469787836075,
        0.024698469787836075,
        0.00248304707929492
      ],
      "min": [
        -0.024698467925190926,
        -0.024698471650481224,
        -0.0017099020769819617
      ],
      "type": "VEC3"
    },
    {
      "bufferView": 2,
      "byteOffset": 71832,
      "componentType": 5126,
      "count": 5986,
      "max": [
        0.9999421834945679,
        0.9999421834945679,
        1.0
      ],
      "min": [
        -0.9999421834945679,
        -0.9999421834945679,
        -0.9999995827674866
      ],
      "type": "VEC3"
    },
    {
      "bufferView": 1,
      "componentType": 5126,
      "count": 5986,
      "max": [
        1.0000001192092896,
        1.000000238418579
      ],
      "min": [
        0.0,
        0.0
      ],
      "type": "VEC2"
    },
    {
      "bufferView": 1,
      "byteOffset": 47888,
      "componentType": 5126,
      "count": 5986,
      "max": [
        0.5529293417930603,
        0.5529293417930603
      ],
      "min": [
        0.4470706582069397,
        0.4437898099422455
      ],
      "type": "VEC2"
    },
    {
      "bufferView": 0,
      "componentType": 5125,
      "count": 23952,
      "type": "SCALAR"
    },
    {
      "bufferView": 2,
      "byteOffset": 143664,
      "componentType": 5126,
      "count": 1320,
      "max": [
        0.9643518924713135,
        0.9641907215118408,
        0.9867608547210693
      ],
      "min": [
        -0.9640227556228638,
        -0.964184045791626,
        -0.9545088410377502
      ],
      "type": "VEC3"
    },
    {
      "bufferView": 2,
      "byteOffset": 159504,
      "componentType": 5126,
      "count": 1320,
      "max": [
        1.0,
        1.0,
        1.0
      ],
      "min": [
        -1.0,
        -1.0,
        -0.9083017706871033
      ],
      "type": "VEC3"
    },
    {
      "bufferView": 1,
      "byteOffset": 95776,
      "componentType": 5126,
      "count": 1320,
      "max": [
        1.24360990524292,
        -0.296618789434433
      ],
      "min": [
        0.4628579020500183,
        -0.6199986934661865
      ],
      "type": "VEC2"
    },
    {
      "bufferView": 1,
      "byteOffset": 106336,
      "componentType": 5126,
      "count": 1320,
      "max": [
        1.7600146532058716,
        1.7595725059509277
      ],
      "min": [
        -0.7596194744110107,
        -0.7600616216659546
      ],
      "type": "VEC2"
    },
    {
      "bufferView": 0,
      "byteOffset": 95808,
      "componentType": 5125,
      "count": 6042,
      "type": "SCALAR"
    },
    {
      "bufferView": 2,
      "byteOffset": 175344,
      "componentType": 5126,
      "count": 686,
      "max": [
        1.0,
        1.0,
        0.9505379796028137
      ],
      "min": [
        -1.0,
        -1.0,
        -0.8876609802246094
      ],
      "type": "VEC3"
    },
    {
      "bufferView": 2,
      "byteOffset": 183576,
      "componentType": 5126,
      "count": 686,
      "max": [
        1.0,
        1.0,
        0.9314802885055542
      ],
      "min": [
        -1.0,
        -1.0,
        -1.0
      ],
      "type": "VEC3"
    },
    {
      "bufferView": 1,
      "byteOffset": 116896,
      "componentType": 5126,
      "count": 686,
      "max": [
        0.9983660578727722,
        1.0399467945098877
      ],
      "min": [
        -0.0026994296349585056,
        -0.0010662376880645752
      ],
      "type": "VEC2"
    },
    {
      "bufferView": 1,
      "byteOffset": 122384,
      "componentType": 5126,
      "count": 686,
      "max": [
        0.9983660578727722,
        1.0399467945098877
      ],
      "min": [
        -0.0026994296349585056,
        -0.0010662376880645752
      ],
      "type": "VEC2"
    },
    {
      "bufferView": 0,
      "byteOffset": 119976,
      "componentType": 5125,
      "count": 2301,
      "type": "SCALAR"
    }
  ],
  "asset": {
    "extras": {
      "author": "Raph3D (https://sketchfab.com/anndaniau)",
      "license": "CC-BY-4.0 (http://creativecommons.org/licenses/by/4.0/)",
      "source": "https://sketchfab.com/3d-models/monster-energy-a0e62901bf42453c84c05c723fc3cee9",
      "title": "Monster Energy"
    },
    "generator": "Sketchfab-14.2.0",
    "version": "2.0"
  },
  "bufferViews": [
    {
      "buffer": 0,
      "byteLength": 129180,
      "name": "floatBufferViews",
      "target": 34963
    },
    {
      "buffer": 0,
      "byteLength": 127872,
      "byteOffset": 129180,
      "byteStride": 8,
      "name": "floatBufferViews",
      "target": 34962
    },
    {
      "buffer": 0,
      "byteLength": 191808,
      "byteOffset": 257052,
      "byteStride": 12,
      "name": "floatBufferViews",
      "target": 34962
    }
  ],
  "buffers": [
    {
      "byteLength": 448860,
      "uri": "scene.bin"
    }
  ],
  "extensionsUsed": [
    "KHR_materials_clearcoat"
  ],
  "images": [
    {
      "uri": "textures/etiquete_baseColor.jpeg"
    }
  ],
  "materials": [
    {
      "doubleSided": true,
      "extensions": {
        "KHR_materials_clearcoat": {
          "clearcoatFactor": 1.0,
          "clearcoatRoughnessFactor": 1.0
        }
      },
      "name": "Scuffed_Aluminum",
      "pbrMetallicRoughness": {
        "baseColorFactor": [
          0.0,
          0.0,
          0.0,
          1.0
        ],
        "roughnessFactor": 0.0
      }
    },
    {
      "doubleSided": true,
      "name": "etiquete",
      "pbrMetallicRoughness": {
        "baseColorTexture": {
          "index": 0
        },
        "metallicFactor": 0.0,
        "roughnessFactor": 0.0
      }
    }
  ],
  "meshes": [
    {
      "name": "Circle.002_Scuffed Aluminum_0",
      "primitives": [
        {
          "attributes": {
            "NORMAL": 1,
            "POSITION": 0,
            "TEXCOORD_0": 2,
            "TEXCOORD_1": 3
          },
          "indices": 4,
          "material": 0,
          "mode": 4
        }
      ]
    },
    {
      "name": "base.004_Scuffed Aluminum_0",
      "primitives": [
        {
          "attributes": {
            "NORMAL": 6,
            "POSITION": 5,
            "TEXCOORD_0": 7,
            "TEXCOORD_1": 8
          },
          "indices": 9,
          "material": 0,
          "mode": 4
        }
      ]
    },
    {
      "name": "base.004_etiquete_0",
      "primitives": [
        {
          "attributes": {
            "NORMAL": 11,
            "POSITION": 10,
            "TEXCOORD_0": 12,
            "TEXCOORD_1": 13
          },
          "indices": 14,
          "material": 1,
          "mode": 4
        }
      ]
    }
  ],
  "nodes": [
    {
      "children": [
        1
      ],
      "matrix": [
        1.0,
        0.0,
        0.0,
        0.0,
        0.0,
        2.220446049250313e-16,
        -1.0,
        0.0,
        0.0,
        1.0,
        2.220446049250313e-16,
        0.0,
        0.0,
        0.0,
        0.0,
        1.0
      ],
      "name": "Sketchfab_model"
    },
    {
      "children": [
        2
      ],
      "matrix": [
        0.009999999776482582,
        0.0,
        0.0,
        0.0,
        0.0,
        0.0,
        0.009999999776482582,
        0.0,
        0.0,
        -0.009999999776482582,
        0.0,
        0.0,
        0.0,
        0.0,
        0.0,
        1.0
      ],
      "name": "6179e13d2b1a4b66a659ecf3e979babe.fbx"
    },
    {
      "children": [
        3,
        5
      ],
      "name": "RootNode"
    },
    {
      "children": [
        4
      ],
      "matrix": [
        -298.22219725474235,
        0.00014827965504382655,
        2624.4051488646323,
        0.0,
        2624.4051488642694,
        0.0014134616157988372,
        298.22219725462156,
        0.0,
        -0.0013876813330525313,
        2641.2949218746176,
        -0.0003069219995660154,
        0.0,
        -3.278909683227539,
        215.74900817871094,
        -0.9016157984733582,
        1.0
      ],
      "name": "Circle.002"
    },
    {
      "mesh": 0,
      "name": "Circle.002_Scuffed Aluminum_0"
    },
    {
      "children": [
        6,
        7
      ],
      "matrix": [
        83.85122680664063,
        0.0,
        0.0,
        0.0,
        -0.0,
        -1.3661098839176437e-05,
        -83.85122680663952,
        0.0,
        0.0,
        224.28062438964548,
        -3.6539951699985675e-05,
        0.0,
        -2.241826057434082,
        0.0,
        0.4023551940917969,
        1.0
      ],
      "name": "base.004"
    },
    {
      "mesh": 1,
      "name": "base.004_Scuffed Aluminum_0"
    },
    {
      "mesh": 2,
      "name": "base.004_etiquete_0"
    }
  ],
  "samplers": [
    {
      "magFilter": 9729,
      "minFilter": 9987,
      "wrapS": 10497,
      "wrapT": 10497
    }
  ],
  "scene": 0,
  "scenes": [
    {
      "name": "Sketchfab_Scene",
      "nodes": [
        0
      ]
    }
  ],
  "textures": [
    {
      "sampler": 0,
      "source": 0
    }
  ]
}
