{
	"asset":{
		"generator":"Khronos glTF Blender I/O v4.1.63",
		"version":"2.0"
	},
	"extensionsUsed":[
		"KHR_materials_specular",
		"KHR_materials_ior"
	],
	"scene":0,
	"scenes":[
		{
			"name":"Scene",
			"nodes":[
				0,
				2,
				4,
				5,
				6,
				7,
				8,
				9,
				10,
				11,
				14,
				15,
				16,
				17,
				18,
				19,
				20
			]
		}
	],
	"nodes":[
		{
			"mesh":0,
			"name":"Object_2",
			"rotation":[
				-0.6225146651268005,
				0,
				0,
				0.782608151435852
			],
			"translation":[
				0,
				1.128829836845398,
				1.686006784439087
			]
		},
		{
			"name":"lychee.obj.cleaner.materialmerger.gles"
		},
		{
			"children":[
				1
			],
			"name":"Sketchfab_model.003",
			"rotation":[
				-0.70710688829422,
				0,
				0,
				0.7071066498756409
			],
			"translation":[
				0,
				0.3896644413471222,
				3.4183456897735596
			]
		},
		{
			"name":"dragonFruit_low2.obj.cleaner.materialmerger.gles"
		},
		{
			"children":[
				3
			],
			"name":"Sketchfab_model.005",
			"rotation":[
				0.9989649653434753,
				-0.010886882431805134,
				-0.032460086047649384,
				0.02994799055159092
			],
			"scale":[
				1.477401852607727,
				1.4774020910263062,
				1.4774022102355957
			],
			"translation":[
				2.0419743061065674,
				0.9943466186523438,
				9.884588241577148
			]
		},
		{
			"mesh":1,
			"name":"Object_2.001",
			"rotation":[
				0,
				-0.7071066498756409,
				-0.70710688829422,
				3.0908619663705394e-08
			],
			"translation":[
				0,
				2.6760408878326416,
				0.0026079490780830383
			]
		},
		{
			"name":"Sketchfab_model.002",
			"rotation":[
				-0.70710688829422,
				0,
				0,
				0.7071066498756409
			],
			"translation":[
				0,
				0,
				-4.999417304992676
			]
		},
		{
			"mesh":2,
			"name":"Object_2.002",
			"rotation":[
				-0.7826082110404968,
				0,
				0,
				0.6225146055221558
			],
			"translation":[
				0,
				1.1306788921356201,
				-1.6692652702331543
			]
		},
		{
			"name":"Sketchfab_model.006",
			"rotation":[
				0.9989649653434753,
				-0.010886882431805134,
				-0.032460086047649384,
				0.02994799055159092
			],
			"scale":[
				1.477401852607727,
				1.4774020910263062,
				1.4774022102355957
			],
			"translation":[
				2.0419743061065674,
				0.9943466186523438,
				7.8160200119018555
			]
		},
		{
			"mesh":3,
			"name":"Object_2.004",
			"rotation":[
				-0.8734027743339539,
				0.3459378778934479,
				-0.3424893915653229,
				0.013986872509121895
			],
			"scale":[
				0.44470253586769104,
				0.4447023868560791,
				0.44470250606536865
			],
			"translation":[
				1.3509992361068726,
				0.1649412214756012,
				0.9818825721740723
			]
		},
		{
			"name":"Sketchfab_model.007",
			"rotation":[
				-0.70710688829422,
				0,
				0,
				0.7071066498756409
			],
			"translation":[
				0,
				0.3896644413471222,
				5.145472049713135
			]
		},
		{
			"mesh":4,
			"name":"Object_3.001",
			"rotation":[
				-0.8708189725875854,
				-0.2047596573829651,
				0.3312503397464752,
				0.30003538727760315
			],
			"translation":[
				1.756955862045288,
				6.942645072937012,
				-3.0828118324279785
			]
		},
		{
			"name":"GLTF_SceneRootNode.001",
			"rotation":[
				0.70710688829422,
				0,
				0,
				0.7071066498756409
			]
		},
		{
			"children":[
				12
			],
			"name":"root.001"
		},
		{
			"children":[
				13
			],
			"name":"Sketchfab_model.008",
			"rotation":[
				-0.70710688829422,
				0,
				0,
				0.7071066498756409
			],
			"scale":[
				0.8043211698532104,
				0.8043212890625,
				0.8043212890625
			],
			"translation":[
				-2.451871871948242,
				0,
				-3.8068511486053467
			]
		},
		{
			"mesh":5,
			"name":"Object_4.001",
			"rotation":[
				0.8493631482124329,
				0.18294759094715118,
				0.10424816608428955,
				0.4839886724948883
			],
			"scale":[
				0.8015813231468201,
				0.8015815019607544,
				0.8015815019607544
			],
			"translation":[
				-2.2286412715911865,
				3.915346384048462,
				0.007645457983016968
			]
		},
		{
			"mesh":6,
			"name":"Spiral.002",
			"scale":[
				1.5534508228302002,
				1.5534508228302002,
				1.5534508228302002
			],
			"translation":[
				0,
				-2.233631134033203,
				0
			]
		},
		{
			"mesh":7,
			"name":"\u041a\u0443\u0431",
			"rotation":[
				-0.39774832129478455,
				0,
				0,
				0.9174945950508118
			],
			"scale":[
				0.31598228216171265,
				0.31598228216171265,
				0.31598228216171265
			],
			"translation":[
				3.2334818840026855,
				2.1840474605560303,
				0.1288706660270691
			]
		},
		{
			"mesh":8,
			"name":"\u041a\u0443\u0431.001",
			"rotation":[
				-0.6199730634689331,
				0.3400491774082184,
				0.6199731230735779,
				0.340049147605896
			],
			"scale":[
				0.31598228216171265,
				0.31598231196403503,
				0.31598231196403503
			],
			"translation":[
				0.04686236381530762,
				3.777357339859009,
				-3.954298257827759
			]
		},
		{
			"mesh":9,
			"name":"\u041a\u0443\u0431.002",
			"rotation":[
				-0.8895784616470337,
				0,
				0,
				0.45678243041038513
			],
			"scale":[
				0.31598228216171265,
				0.31598228216171265,
				0.31598228216171265
			],
			"translation":[
				-3.565265655517578,
				6.300411224365234,
				0.1288706660270691
			]
		},
		{
			"mesh":10,
			"name":"\u041a\u0443\u0431.003",
			"rotation":[
				-0.47858625650405884,
				0.12381543219089508,
				0.6961823105812073,
				0.5205336213111877
			],
			"scale":[
				0.31598228216171265,
				0.31598228216171265,
				0.31598228216171265
			],
			"translation":[
				0.04686236381530762,
				0.16710424423217773,
				3.113790512084961
			]
		}
	],
	"materials":[
		{
			"doubleSided":true,
			"name":"Material",
			"pbrMetallicRoughness":{
				"baseColorTexture":{
					"index":0
				},
				"roughnessFactor":0
			}
		},
		{
			"doubleSided":true,
			"name":"Material.001",
			"pbrMetallicRoughness":{
				"baseColorTexture":{
					"index":1
				},
				"roughnessFactor":0
			}
		},
		{
			"doubleSided":true,
			"name":"Material.002",
			"pbrMetallicRoughness":{
				"baseColorTexture":{
					"index":2
				},
				"roughnessFactor":0
			}
		},
		{
			"emissiveFactor":[
				0.078125,
				0.078125,
				0.078125
			],
			"emissiveTexture":{
				"index":3
			},
			"extensions":{
				"KHR_materials_specular":{
					"specularColorFactor":[
						0.03201588615775108,
						0.03201588615775108,
						0.03201588615775108
					],
					"specularColorTexture":{
						"index":4
					}
				},
				"KHR_materials_ior":{
					"ior":1000
				}
			},
			"name":"material_0.002",
			"normalTexture":{
				"index":5
			},
			"pbrMetallicRoughness":{
				"baseColorFactor":[
					0.6814374923706055,
					0.6814374923706055,
					0.6814374923706055,
					1
				],
				"baseColorTexture":{
					"index":6
				},
				"metallicFactor":0,
				"metallicRoughnessTexture":{
					"index":7
				}
			}
		},
		{
			"doubleSided":true,
			"name":"material_0.003",
			"occlusionTexture":{
				"index":8
			},
			"pbrMetallicRoughness":{
				"baseColorTexture":{
					"index":9
				},
				"metallicFactor":0,
				"metallicRoughnessTexture":{
					"index":8
				},
				"roughnessFactor":0
			}
		},
		{
			"doubleSided":true,
			"extensions":{
				"KHR_materials_specular":{
					"specularFactor":0.1931699961423874
				}
			},
			"name":"3DModel_LowPoly.001",
			"normalTexture":{
				"index":10
			},
			"pbrMetallicRoughness":{
				"baseColorTexture":{
					"index":11
				},
				"metallicFactor":0,
				"roughnessFactor":0.5764679312705994
			}
		},
		{
			"doubleSided":true,
			"name":"\u041c\u0430\u0442\u0435\u0440\u0438\u0430\u043b.002",
			"pbrMetallicRoughness":{
				"baseColorFactor":[
					1,
					1,
					1,
					0.5
				],
				"baseColorTexture":{
					"index":12
				},
				"metallicFactor":0,
				"roughnessFactor":0.5
			}
		},
		{
			"doubleSided":true,
			"name":"\u041c\u0430\u0442\u0435\u0440\u0438\u0430\u043b.003",
			"pbrMetallicRoughness":{}
		},
		{
			"doubleSided":true,
			"name":"\u041c\u0430\u0442\u0435\u0440\u0438\u0430\u043b.004",
			"pbrMetallicRoughness":{}
		},
		{
			"doubleSided":true,
			"name":"\u041c\u0430\u0442\u0435\u0440\u0438\u0430\u043b.005",
			"pbrMetallicRoughness":{}
		},
		{
			"doubleSided":true,
			"name":"\u041c\u0430\u0442\u0435\u0440\u0438\u0430\u043b.006",
			"pbrMetallicRoughness":{}
		}
	],
	"meshes":[
		{
			"name":"Object_0",
			"primitives":[
				{
					"attributes":{
						"POSITION":0,
						"NORMAL":1,
						"TEXCOORD_0":2
					},
					"indices":3,
					"material":0
				}
			]
		},
		{
			"name":"Object_0.001",
			"primitives":[
				{
					"attributes":{
						"POSITION":4,
						"NORMAL":5,
						"TEXCOORD_0":6
					},
					"indices":3,
					"material":1
				}
			]
		},
		{
			"name":"Object_0.002",
			"primitives":[
				{
					"attributes":{
						"POSITION":7,
						"NORMAL":8,
						"TEXCOORD_0":9
					},
					"indices":3,
					"material":2
				}
			]
		},
		{
			"name":"Object_0.006",
			"primitives":[
				{
					"attributes":{
						"POSITION":10,
						"NORMAL":11,
						"TEXCOORD_0":12
					},
					"indices":13,
					"material":3
				}
			]
		},
		{
			"name":"Object_1.002",
			"primitives":[
				{
					"attributes":{
						"POSITION":14,
						"NORMAL":15,
						"TEXCOORD_0":16
					},
					"indices":17,
					"material":4
				}
			]
		},
		{
			"name":"Object_0.007",
			"primitives":[
				{
					"attributes":{
						"POSITION":18,
						"NORMAL":19,
						"TEXCOORD_0":20,
						"TEXCOORD_1":21
					},
					"indices":22,
					"material":5
				}
			]
		},
		{
			"name":"Spiral.002",
			"primitives":[
				{
					"attributes":{
						"POSITION":23,
						"NORMAL":24,
						"TEXCOORD_0":25
					},
					"indices":26,
					"material":6
				}
			]
		},
		{
			"name":"\u041a\u0443\u0431",
			"primitives":[
				{
					"attributes":{
						"POSITION":27,
						"NORMAL":28,
						"TEXCOORD_0":29
					},
					"indices":30,
					"material":7
				}
			]
		},
		{
			"name":"\u041a\u0443\u0431.001",
			"primitives":[
				{
					"attributes":{
						"POSITION":31,
						"NORMAL":32,
						"TEXCOORD_0":33
					},
					"indices":30,
					"material":8
				}
			]
		},
		{
			"name":"\u041a\u0443\u0431.002",
			"primitives":[
				{
					"attributes":{
						"POSITION":34,
						"NORMAL":35,
						"TEXCOORD_0":36
					},
					"indices":30,
					"material":9
				}
			]
		},
		{
			"name":"\u041a\u0443\u0431.003",
			"primitives":[
				{
					"attributes":{
						"POSITION":37,
						"NORMAL":38,
						"TEXCOORD_0":39
					},
					"indices":30,
					"material":10
				}
			]
		}
	],
	"textures":[
		{
			"sampler":0,
			"source":0
		},
		{
			"sampler":0,
			"source":1
		},
		{
			"sampler":0,
			"source":2
		},
		{
			"sampler":0,
			"source":3
		},
		{
			"sampler":0,
			"source":4
		},
		{
			"sampler":0,
			"source":5
		},
		{
			"sampler":0,
			"source":3
		},
		{
			"sampler":0,
			"source":6
		},
		{
			"sampler":0,
			"source":7
		},
		{
			"sampler":0,
			"source":8
		},
		{
			"sampler":0,
			"source":9
		},
		{
			"sampler":0,
			"source":10
		},
		{
			"sampler":0,
			"source":11
		}
	],
	"images":[
		{
			"mimeType":"image/png",
			"name":"Monster Pinapple",
			"uri":"Monster%20Pinapple.png"
		},
		{
			"mimeType":"image/png",
			"name":"Monster Pitaya",
			"uri":"Monster%20Pitaya.png"
		},
		{
			"mimeType":"image/png",
			"name":"Monster Lychee",
			"uri":"Monster%20Lychee.png"
		},
		{
			"mimeType":"image/jpeg",
			"name":"material_0_diffuse",
			"uri":"material_0_diffuse.jpg"
		},
		{
			"mimeType":"image/png",
			"name":"material_0_specularGlossiness",
			"uri":"material_0_specularGlossiness.png"
		},
		{
			"mimeType":"image/jpeg",
			"name":"material_0_normal",
			"uri":"material_0_normal.jpg"
		},
		{
			"mimeType":"image/png",
			"name":"material_0_specularGlossiness",
			"uri":"material_0_specularGlossiness-1.png"
		},
		{
			"mimeType":"image/png",
			"name":"material_0_metallicRoughness",
			"uri":"material_0_metallicRoughness.png"
		},
		{
			"mimeType":"image/jpeg",
			"name":"material_0_baseColor",
			"uri":"material_0_baseColor.jpg"
		},
		{
			"mimeType":"image/png",
			"name":"3DModel_LowPoly_normal",
			"uri":"3DModel_LowPoly_normal.png"
		},
		{
			"mimeType":"image/jpeg",
			"name":"3DModel_LowPoly_baseColor",
			"uri":"3DModel_LowPoly_baseColor.jpg"
		},
		{
			"mimeType":"image/png",
			"name":"Curve",
			"uri":"Curve.png"
		}
	],
	"accessors":[
		{
			"bufferView":0,
			"componentType":5126,
			"count":2486,
			"max":[
				0.780951976776123,
				0.780951976776123,
				3.900468111038208
			],
			"min":[
				-0.780951976776123,
				-0.780951976776123,
				0.010332000441849232
			],
			"type":"VEC3"
		},
		{
			"bufferView":1,
			"componentType":5126,
			"count":2486,
			"type":"VEC3"
		},
		{
			"bufferView":2,
			"componentType":5126,
			"count":2486,
			"type":"VEC2"
		},
		{
			"bufferView":3,
			"componentType":5123,
			"count":12984,
			"type":"SCALAR"
		},
		{
			"bufferView":4,
			"componentType":5126,
			"count":2486,
			"max":[
				0.780951976776123,
				0.780951976776123,
				3.900468111038208
			],
			"min":[
				-0.780951976776123,
				-0.780951976776123,
				0.010332000441849232
			],
			"type":"VEC3"
		},
		{
			"bufferView":5,
			"componentType":5126,
			"count":2486,
			"type":"VEC3"
		},
		{
			"bufferView":6,
			"componentType":5126,
			"count":2486,
			"type":"VEC2"
		},
		{
			"bufferView":7,
			"componentType":5126,
			"count":2486,
			"max":[
				0.780951976776123,
				0.780951976776123,
				3.900468111038208
			],
			"min":[
				-0.780951976776123,
				-0.780951976776123,
				0.010332000441849232
			],
			"type":"VEC3"
		},
		{
			"bufferView":8,
			"componentType":5126,
			"count":2486,
			"type":"VEC3"
		},
		{
			"bufferView":9,
			"componentType":5126,
			"count":2486,
			"type":"VEC2"
		},
		{
			"bufferView":10,
			"componentType":5126,
			"count":70334,
			"max":[
				2.875933885574341,
				0.8937240242958069,
				1.5517970323562622
			],
			"min":[
				-1.0525059700012207,
				-3.6103429794311523,
				-1.6742500066757202
			],
			"type":"VEC3"
		},
		{
			"bufferView":11,
			"componentType":5126,
			"count":70334,
			"type":"VEC3"
		},
		{
			"bufferView":12,
			"componentType":5126,
			"count":70334,
			"type":"VEC2"
		},
		{
			"bufferView":13,
			"componentType":5125,
			"count":192372,
			"type":"SCALAR"
		},
		{
			"bufferView":14,
			"componentType":5126,
			"count":46550,
			"max":[
				0.772490382194519,
				0.3607592284679413,
				0.37016183137893677
			],
			"min":[
				-0.7721232175827026,
				-0.3603917360305786,
				-0.3701333999633789
			],
			"type":"VEC3"
		},
		{
			"bufferView":15,
			"componentType":5126,
			"count":46550,
			"type":"VEC3"
		},
		{
			"bufferView":16,
			"componentType":5126,
			"count":46550,
			"type":"VEC2"
		},
		{
			"bufferView":17,
			"componentType":5123,
			"count":155613,
			"type":"SCALAR"
		},
		{
			"bufferView":18,
			"componentType":5126,
			"count":44994,
			"max":[
				1.096772313117981,
				1.0485754013061523,
				2.051201105117798
			],
			"min":[
				-1.2091718912124634,
				-1.0737204551696777,
				-2.406491756439209
			],
			"type":"VEC3"
		},
		{
			"bufferView":19,
			"componentType":5126,
			"count":44994,
			"type":"VEC3"
		},
		{
			"bufferView":20,
			"componentType":5126,
			"count":44994,
			"type":"VEC2"
		},
		{
			"bufferView":21,
			"componentType":5126,
			"count":44994,
			"type":"VEC2"
		},
		{
			"bufferView":22,
			"componentType":5123,
			"count":44994,
			"type":"SCALAR"
		},
		{
			"bufferView":23,
			"componentType":5126,
			"count":5106,
			"max":[
				2.480250120162964,
				6.255292892456055,
				2.3248238563537598
			],
			"min":[
				-1.8296703100204468,
				1.2328444719314575,
				-2.262465715408325
			],
			"type":"VEC3"
		},
		{
			"bufferView":24,
			"componentType":5126,
			"count":5106,
			"type":"VEC3"
		},
		{
			"bufferView":25,
			"componentType":5126,
			"count":5106,
			"type":"VEC2"
		},
		{
			"bufferView":26,
			"componentType":5123,
			"count":23688,
			"type":"SCALAR"
		},
		{
			"bufferView":27,
			"componentType":5126,
			"count":3649,
			"max":[
				1.049931526184082,
				1.0513471364974976,
				1.037596583366394
			],
			"min":[
				-1.0462478399276733,
				-1.0399991273880005,
				-1.042431354522705
			],
			"type":"VEC3"
		},
		{
			"bufferView":28,
			"componentType":5126,
			"count":3649,
			"type":"VEC3"
		},
		{
			"bufferView":29,
			"componentType":5126,
			"count":3649,
			"type":"VEC2"
		},
		{
			"bufferView":30,
			"componentType":5123,
			"count":20736,
			"type":"SCALAR"
		},
		{
			"bufferView":31,
			"componentType":5126,
			"count":3649,
			"max":[
				1.049931526184082,
				1.0513471364974976,
				1.037596583366394
			],
			"min":[
				-1.0462478399276733,
				-1.0399991273880005,
				-1.042431354522705
			],
			"type":"VEC3"
		},
		{
			"bufferView":32,
			"componentType":5126,
			"count":3649,
			"type":"VEC3"
		},
		{
			"bufferView":33,
			"componentType":5126,
			"count":3649,
			"type":"VEC2"
		},
		{
			"bufferView":34,
			"componentType":5126,
			"count":3649,
			"max":[
				1.049931526184082,
				1.0513471364974976,
				1.037596583366394
			],
			"min":[
				-1.0462478399276733,
				-1.0399991273880005,
				-1.042431354522705
			],
			"type":"VEC3"
		},
		{
			"bufferView":35,
			"componentType":5126,
			"count":3649,
			"type":"VEC3"
		},
		{
			"bufferView":36,
			"componentType":5126,
			"count":3649,
			"type":"VEC2"
		},
		{
			"bufferView":37,
			"componentType":5126,
			"count":3649,
			"max":[
				1.049931526184082,
				1.0513471364974976,
				1.037596583366394
			],
			"min":[
				-1.0462478399276733,
				-1.0399991273880005,
				-1.042431354522705
			],
			"type":"VEC3"
		},
		{
			"bufferView":38,
			"componentType":5126,
			"count":3649,
			"type":"VEC3"
		},
		{
			"bufferView":39,
			"componentType":5126,
			"count":3649,
			"type":"VEC2"
		}
	],
	"bufferViews":[
		{
			"buffer":0,
			"byteLength":29832,
			"byteOffset":0,
			"target":34962
		},
		{
			"buffer":0,
			"byteLength":29832,
			"byteOffset":29832,
			"target":34962
		},
		{
			"buffer":0,
			"byteLength":19888,
			"byteOffset":59664,
			"target":34962
		},
		{
			"buffer":0,
			"byteLength":25968,
			"byteOffset":79552,
			"target":34963
		},
		{
			"buffer":0,
			"byteLength":29832,
			"byteOffset":105520,
			"target":34962
		},
		{
			"buffer":0,
			"byteLength":29832,
			"byteOffset":135352,
			"target":34962
		},
		{
			"buffer":0,
			"byteLength":19888,
			"byteOffset":165184,
			"target":34962
		},
		{
			"buffer":0,
			"byteLength":29832,
			"byteOffset":185072,
			"target":34962
		},
		{
			"buffer":0,
			"byteLength":29832,
			"byteOffset":214904,
			"target":34962
		},
		{
			"buffer":0,
			"byteLength":19888,
			"byteOffset":244736,
			"target":34962
		},
		{
			"buffer":0,
			"byteLength":844008,
			"byteOffset":264624,
			"target":34962
		},
		{
			"buffer":0,
			"byteLength":844008,
			"byteOffset":1108632,
			"target":34962
		},
		{
			"buffer":0,
			"byteLength":562672,
			"byteOffset":1952640,
			"target":34962
		},
		{
			"buffer":0,
			"byteLength":769488,
			"byteOffset":2515312,
			"target":34963
		},
		{
			"buffer":0,
			"byteLength":558600,
			"byteOffset":3284800,
			"target":34962
		},
		{
			"buffer":0,
			"byteLength":558600,
			"byteOffset":3843400,
			"target":34962
		},
		{
			"buffer":0,
			"byteLength":372400,
			"byteOffset":4402000,
			"target":34962
		},
		{
			"buffer":0,
			"byteLength":311226,
			"byteOffset":4774400,
			"target":34963
		},
		{
			"buffer":0,
			"byteLength":539928,
			"byteOffset":5085628,
			"target":34962
		},
		{
			"buffer":0,
			"byteLength":539928,
			"byteOffset":5625556,
			"target":34962
		},
		{
			"buffer":0,
			"byteLength":359952,
			"byteOffset":6165484,
			"target":34962
		},
		{
			"buffer":0,
			"byteLength":359952,
			"byteOffset":6525436,
			"target":34962
		},
		{
			"buffer":0,
			"byteLength":89988,
			"byteOffset":6885388,
			"target":34963
		},
		{
			"buffer":0,
			"byteLength":61272,
			"byteOffset":6975376,
			"target":34962
		},
		{
			"buffer":0,
			"byteLength":61272,
			"byteOffset":7036648,
			"target":34962
		},
		{
			"buffer":0,
			"byteLength":40848,
			"byteOffset":7097920,
			"target":34962
		},
		{
			"buffer":0,
			"byteLength":47376,
			"byteOffset":7138768,
			"target":34963
		},
		{
			"buffer":0,
			"byteLength":43788,
			"byteOffset":7186144,
			"target":34962
		},
		{
			"buffer":0,
			"byteLength":43788,
			"byteOffset":7229932,
			"target":34962
		},
		{
			"buffer":0,
			"byteLength":29192,
			"byteOffset":7273720,
			"target":34962
		},
		{
			"buffer":0,
			"byteLength":41472,
			"byteOffset":7302912,
			"target":34963
		},
		{
			"buffer":0,
			"byteLength":43788,
			"byteOffset":7344384,
			"target":34962
		},
		{
			"buffer":0,
			"byteLength":43788,
			"byteOffset":7388172,
			"target":34962
		},
		{
			"buffer":0,
			"byteLength":29192,
			"byteOffset":7431960,
			"target":34962
		},
		{
			"buffer":0,
			"byteLength":43788,
			"byteOffset":7461152,
			"target":34962
		},
		{
			"buffer":0,
			"byteLength":43788,
			"byteOffset":7504940,
			"target":34962
		},
		{
			"buffer":0,
			"byteLength":29192,
			"byteOffset":7548728,
			"target":34962
		},
		{
			"buffer":0,
			"byteLength":43788,
			"byteOffset":7577920,
			"target":34962
		},
		{
			"buffer":0,
			"byteLength":43788,
			"byteOffset":7621708,
			"target":34962
		},
		{
			"buffer":0,
			"byteLength":29192,
			"byteOffset":7665496,
			"target":34962
		}
	],
	"samplers":[
		{
			"magFilter":9729,
			"minFilter":9987
		}
	],
	"buffers":[
		{
			"byteLength":7694688,
			"uri":"Monster%20Energy.bin"
		}
	]
}
